<svg xmlns="http://www.w3.org/2000/svg" viewBox="0 0 64 64" width="512" height="512"><g id="_24_hours" data-name="24 hours"><path d="M43.794,20.208A20.99,20.99,0,0,0,2,23,20.83,20.83,0,0,0,5.138,34.026L2.615,35.077A1,1,0,0,0,2,36v8.857a10.926,10.926,0,0,0,3.222,7.779l9.071,9.071a1,1,0,0,0,1.414,0l8.335-8.335A20.991,20.991,0,1,0,43.794,20.208Zm-2.042-.17C41.5,20.029,41.254,20,41,20a20.887,20.887,0,0,0-8.032,1.617,39.441,39.441,0,0,0-1.379-9.477,21,21,0,0,0,4.6-2.837A18.861,18.861,0,0,1,41.752,20.038ZM15.628,30.178A40.6,40.6,0,0,1,15.023,24H28.714a20.962,20.962,0,0,0-7,8.714ZM23,4c2.242,0,4.57,2.583,6.134,6.962A18.94,18.94,0,0,1,23,12a18.94,18.94,0,0,1-6.134-1.038C18.43,6.583,20.758,4,23,4Zm-7.977,6.228A19.032,19.032,0,0,1,11.378,8a18.929,18.929,0,0,1,6.678-3.328A17.973,17.973,0,0,0,15.023,10.228Zm12.9-5.577A18.872,18.872,0,0,1,34.663,7.97a19.055,19.055,0,0,1-3.686,2.258A17.956,17.956,0,0,0,27.924,4.651ZM23,14a20.926,20.926,0,0,0,6.731-1.131A37.8,37.8,0,0,1,30.977,22H15.023a37.8,37.8,0,0,1,1.246-9.131A20.926,20.926,0,0,0,23,14ZM9.838,9.328a21.022,21.022,0,0,0,4.573,2.812A39.685,39.685,0,0,0,13.023,22H4.051A18.929,18.929,0,0,1,9.838,9.328ZM4.038,24h8.985a42.633,42.633,0,0,0,.628,6.479L7.013,33.245A18.8,18.8,0,0,1,4.038,24ZM15,59.586,6.636,51.222A8.943,8.943,0,0,1,4,44.857v-8.19l11-4.584,11,4.584v8.19a8.943,8.943,0,0,1-2.636,6.365ZM28,40V36a1,1,0,0,0-.615-.923l-.136-.056a15,15,0,1,1,.36,12.718A11.034,11.034,0,0,0,28,44.857V42h2V40ZM41,60a18.9,18.9,0,0,1-15.549-8.106,10.961,10.961,0,0,0,1.214-1.781A16.993,16.993,0,1,0,25.4,34.252l-1.847-.77A19,19,0,1,1,41,60Z"></path><path d="M33,48h7V46H34V42h5a1,1,0,0,0,1-1V35a1,1,0,0,0-1-1H32v2h6v4H33a1,1,0,0,0-1,1v6A1,1,0,0,0,33,48Z"></path><path d="M42,34v7a1,1,0,0,0,1,1h5v6h2V34H48v6H44V34Z"></path><rect x="40" y="28" width="2" height="2"></rect><rect x="40" y="52" width="2" height="2"></rect><rect x="52" y="40" width="2" height="2"></rect><path d="M12.878,43.465l-1.414,1.414,2.829,2.828a1,1,0,0,0,1.414,0l5.657-5.657L19.95,40.636,15,45.586Z"></path><path d="M25,38a1,1,0,0,0-.615-.923l-9-3.75a1,1,0,0,0-.77,0l-9,3.75A1,1,0,0,0,5,38v6.857a7.955,7.955,0,0,0,2.342,5.658h0l6.95,6.95a1,1,0,0,0,1.414,0l6.951-6.95A7.955,7.955,0,0,0,25,44.857Zm-2,6.857A5.965,5.965,0,0,1,21.243,49.1L15,55.344,8.757,49.1A5.965,5.965,0,0,1,7,44.857v-6.19l8-3.334,8,3.334Z"></path></g></svg>