<svg xmlns="http://www.w3.org/2000/svg" height="482pt" viewBox="-22 0 482 482.76" width="482pt"><path d="m376.898438 324.550781h-26.417969c-2.761719 0-5 2.238281-5 5v21.417969h-21.421875c-2.761719 0-5 2.238281-5 5v26.421875c0 2.761719 2.238281 5 5 5h21.421875v21.460937c0 2.761719 2.238281 5 5 5h26.417969c2.761718 0 5-2.238281 5-5v-21.460937h21.421874c2.761719 0 5-2.238281 5-5v-26.421875c0-2.761719-2.238281-5-5-5h-21.421874v-21.417969c0-2.761719-2.238282-5-5-5zm21.421874 36.417969v16.421875h-21.421874c-2.761719 0-5 2.238281-5 5v21.460937h-16.417969v-21.460937c0-2.761719-2.238281-5-5-5h-21.421875v-16.421875h21.421875c2.761719 0 5-2.238281 5-5v-21.417969h16.417969v21.417969c0 2.761719 2.238281 5 5 5zm0 0"></path><path d="m363.691406 294.089844c-33.421875.097656-62.789062 22.183594-72.160156 54.261718-.765625 2.652344.765625 5.421876 3.417969 6.1875 2.65625.765626 5.425781-.765624 6.191406-3.417968 9.457031-32.871094 42.722656-52.824219 76.175781-45.699219 33.449219 7.128906 55.691406 38.914063 50.929688 72.78125-4.765625 33.871094-34.910156 58.289063-69.03125 55.914063-34.117188-2.375-60.589844-30.734376-60.613282-64.9375 0-2.761719-2.238281-5-5-5-2.761718 0-5 2.238281-5 5 0 41.472656 33.617188 75.089843 75.089844 75.089843 41.46875 0 75.089844-33.617187 75.089844-75.089843 0-41.472657-33.621094-75.089844-75.089844-75.089844zm0 0"></path><path d="m277.71875 450.140625c-3.152344 0-6.285156.539063-9.257812 1.597656v-188.167969c8.214843-7.933593 14.597656-17.566406 18.710937-28.21875h94.597656c2.425781 6.597657 9.230469 10.503907 16.148438 9.273438 6.921875-1.230469 11.960937-7.246094 11.960937-14.273438 0-7.03125-5.039062-13.046874-11.960937-14.277343-6.917969-1.230469-13.722657 2.679687-16.148438 9.277343h-91.507812c.863281-3.621093 1.460937-7.296874 1.789062-11 29.476563-7.292968 50.1875-33.746093 50.1875-64.113281v-20.1875h65.703125c9.386719 0 17-7.613281 17-17 0-9.390625-7.613281-17-17-17h-9.25v-6.640625c0-2.761718-2.238281-5-5-5h-11.792968c3.300781-6.890625 5.007812-14.433594 5-22.070312v-48.578125c0-2.761719-2.238282-5-5-5h-13.527344c-2.40625-6.167969-8.859375-9.75-15.363282-8.523438-6.503906 1.222657-11.21875 6.902344-11.21875 13.523438 0 6.617187 4.714844 12.296875 11.21875 13.519531 6.503907 1.226562 12.957032-2.355469 15.363282-8.519531h8.519531v43.609375c.007813 7.8125-2.214844 15.46875-6.402344 22.070312h-70c-4.1875-6.601562-6.40625-14.257812-6.398437-22.070312v-43.609375h8.089844c2.40625 6.164062 8.859374 9.746093 15.363281 8.519531 6.503906-1.222656 11.214843-6.902344 11.214843-13.519531 0-6.621094-4.710937-12.300781-11.214843-13.523438-6.503907-1.226562-12.957031 2.355469-15.363281 8.523438h-13.089844c-2.761719 0-5 2.238281-5 5v48.609375c-.007813 7.636718 1.703125 15.179687 5 22.070312h-5.769532c-8.042968-15.113281-20.792968-27.191406-36.320312-34.402344-.292969-.160156-.601562-.300781-.921875-.410156-3.527344-1.582031-7.171875-2.890625-10.898437-3.917968v-19c0-2.761719-2.238282-5-5-5-2.761719 0-5 2.238281-5 5v21.140624c0 .304688.03125.609376.089843.910157-.042969.207031-.074219.417969-.089843.628906-.179688 5.882813-5 10.558594-10.882813 10.558594-5.886719 0-10.707031-4.675781-10.886719-10.558594 0-.152344 0-.28125 0-.421875v-.230469c.054688-.292969.085938-.589843.089844-.886719v-21.171874c0-2.761719-2.238281-5-5-5s-5 2.238281-5 5v19c-3.167969.878906-6.273438 1.960937-9.300781 3.242187-.179688.066406-.355469.140625-.527344.226563-17.394531 7.507812-31.496094 21.035156-39.722656 38.101562-1.1875 2.488281-.132813 5.46875 2.351562 6.660156.667969.324219 1.40625.492188 2.148438.488282 1.929687.003906 3.6875-1.097657 4.519531-2.839844 6.054688-12.558594 15.792969-22.976563 27.921875-29.859375v25.589843c-7.195313 6.648438-9.484375 17.074219-5.730469 26.121094 1.300782 3.054688 3.257813 5.785156 5.730469 8v145.210938c-21.378906-12.054688-34.59375-34.699219-34.570313-59.242188v-20.707031h14.878907c2.761719 0 5-2.242187 5-5 0-2.761719-2.238281-5-5-5h-14.878907v-47.171875c14.902344-2.816406 25.695313-15.832031 25.699219-31 0-2.761719-2.238281-5-5-5s-5 2.238281-5 5c-.011719 11.878906-9.640625 21.507812-21.519531 21.519531h-103.859375v-25.578125h91.199219c2.761718 0 5-2.238281 5-5 0-2.761718-2.238282-5-5-5h-96.199219c-2.761719 0-5 2.238282-5 5v6.636719h-9.261719c-9.386718 0-17 7.613281-17 17 0 9.390625 7.613282 17 17 17h118.941406v46.621094h-94.851562c-2.605469-6.53125-9.523438-10.25-16.414062-8.828125-6.886719 1.425781-11.761719 7.585937-11.5625 14.617187.195312 7.03125 5.40625 12.90625 12.363281 13.945313 6.957031 1.035156 13.65625-3.066406 15.894531-9.734375h94.570312v20.710937c-.015624 22.074219 9.324219 43.121094 25.699219 57.917969v170.75c0 2.761719 2.238281 5 5 5h30.058594v13.210937c-6.617187 4.109376-11.203125 10.8125-12.628906 18.472657h-7.179688v-19.652344c0-2.761719-2.238281-5-5-5s-5 2.238281-5 5v19.652344h-6.878906c-2.761719 0-5 2.238281-5 5 0 2.757812 2.238281 5 5 5h139.929687c2.761719 0 5-2.242188 5-5-.015624-15.242188-12.359374-27.59375-27.601562-27.621094zm117.601562-224.289063c2.484376 0 4.5 2.011719 4.5 4.5 0 2.484376-2.015624 4.5-4.5 4.5-2.484374 0-4.5-2.015624-4.5-4.5.003907-2.484374 2.015626-4.496093 4.5-4.5zm-39.75-208.332031c-2.078124.007813-3.765624-1.675781-3.769531-3.753906-.003906-2.078125 1.679688-3.765625 3.757813-3.765625 2.074218 0 3.761718 1.683594 3.761718 3.761719 0 2.070312-1.675781 3.753906-3.75 3.757812zm-40.589843-7.519531c2.074219 0 3.757812 1.683594 3.757812 3.761719 0 2.074219-1.683593 3.757812-3.757812 3.757812-2.078125 0-3.761719-1.683593-3.761719-3.757812.007812-2.074219 1.6875-3.757813 3.761719-3.761719zm-304.582031 103.058594c0-3.863282 3.136718-7 7-7h9.261718v14h-9.28125c-3.855468-.007813-6.980468-3.140625-6.980468-7zm17.621093 73.5c-2.484375 0-4.5-2.011719-4.5-4.5 0-2.484375 2.015625-4.5 4.5-4.5s4.5 2.015625 4.5 4.5c0 2.488281-2.015625 4.5-4.5 4.5zm251.929688 38.792968h-19.507813c-2.761718 0-5 2.238282-5 5 0 2.761719 2.238282 5 5 5h15.878906c-5.679687 12.5625-15.03125 23.117188-26.820312 30.269532v-55c8.402344 3.726562 17.496094 5.652344 26.691406 5.648437 1.886719 0 3.757813-.089843 5.609375-.25-.398437 3.148438-1.015625 6.265625-1.851562 9.332031zm-59.757813-78.582031 19.328125-16.660156v62.410156c-12.277343-10.617187-19.335937-26.046875-19.328125-42.28125zm26.847656-42.519531c.03125 1.835938-.308593 3.660156-1 5.359375-.828124 1.898437-2.09375 3.574219-3.6875 4.890625l-2.8125 2.421875-24.328124 21-24.339844-21-2.800782-2.410156c-3.09375-2.492188-4.851562-6.28125-4.75-10.25.148438-5.015625 3.03125-9.546875 7.507813-11.800781 1.605469-.820313 3.363281-1.296876 5.160156-1.402344h.761719c7.410156.011718 13.414062 6.019531 13.421875 13.429687 0 2.761719 2.238281 5 5 5 2.757813 0 5-2.238281 5-5-.003906-3.691406 1.519531-7.21875 4.199219-9.757812 2.683594-2.535157 6.292968-3.855469 9.980468-3.652344 1.792969.105469 3.546876.585937 5.148438 1.402344 4.488281 2.238281 7.382812 6.757812 7.539062 11.769531zm-56.1875 25.859375 19.339844 16.652344v3.476562c.003906 22.039063 11.007813 42.617188 29.328125 54.863281v22.75h-48.667969zm217.089844-24c3.863282 0 7 3.132813 7 7s-3.136718 7-7 7h-9.25v-14zm-19.25-11.640625v25.582031h-46.453125v-6.742187c13.144531-1.746094 25.105469-8.507813 33.382813-18.867188zm-53.203125 9.332031c-9.542969.003907-18.792969-3.304687-26.167969-9.359375h52.300782c-7.371094 6.035156-16.605469 9.335938-26.132813 9.328125zm-40.167969-9.359375c9.03125 11.320313 22.425782 18.300782 36.878907 19.21875v6.390625h-25.878907c-2.761718 0-5 2.238281-5 5s2.238282 5 5 5h25.917969v20.1875c-.003906 24.71875-16.195312 46.515625-39.859375 53.660157v-83c.015625-9.019532-1.535156-17.972657-4.589844-26.457032zm-45.800781-31.769531c20.371094 12.339844 32.824219 34.410156 32.859375 58.226563v85c-2.046875.226562-4.109375.339843-6.167968.339843-9.324219.015625-18.5-2.3125-26.691407-6.769531v-78c2.476563-2.214844 4.433594-4.945312 5.742188-8 3.738281-9.050781 1.449219-19.476562-5.742188-26.128906zm-58.667969-5.601563c1.226563-.449218 2.46875-.871093 3.71875-1.25 2.917969 8.417969 10.851563 14.066407 19.765626 14.066407 8.910156 0 16.84375-5.648438 19.765624-14.066407 1.839844.558594 3.648438 1.179688 5.417969 1.890626v24.140624c-7.816406-2.035156-16.132812.105469-22 5.660157-.835937.789062-1.613281 1.640625-2.320312 2.546875-4.714844-6.019532-12.082031-9.355469-19.71875-8.929688-1.5625.085938-3.109375.328125-4.621094.730469zm-18.851562 374v-158.128906c3.695312 2.382813 7.582031 4.453125 11.621094 6.1875.253906.128906.523437.234375.800781.3125.460937.144532.941406.21875 1.429687.21875 2.761719 0 5-2.238281 5-5v-36.808594h48.667969v36.070313c0 2.757813 2.238281 5 5 5 .722657-.003906 1.433594-.15625 2.089844-.453125 4.136719-1.882812 8.097656-4.121094 11.839844-6.699219v159.308594h-25.058594v-153.917969c-.230469-9.867187-8.296875-17.742187-18.164063-17.742187-9.871093 0-17.933593 7.875-18.167968 17.742187v153.917969zm39.601562 29.058594c7.800782.007813 14.675782 5.140625 16.898438 12.621094h-33.800781c2.226562-7.476562 9.101562-12.601562 16.902343-12.609375zm39 12.621094h-11.382812v-19.640625c0-2.761719-2.238281-5-5-5s-5 2.238281-5 5v3.402344c-6.15625-5.136719-14.25-7.328125-22.160156-6v-173.351563c.15625-4.398437 3.765625-7.882812 8.167968-7.882812 4.398438 0 8.007813 3.484375 8.164063 7.882812v158.917969c0 2.761719 2.238281 5 5 5h30.070313v16.910156c-4.109376 3.984375-6.875 9.144531-7.910157 14.773438zm10.269532 0c2.222656-7.480469 9.097656-12.609375 16.898437-12.609375 7.804688 0 14.679688 5.128906 16.902344 12.609375zm0 0"></path><path d="m150.648438 338.21875h-81.226563c-2.425781-6.597656-9.230469-10.503906-16.152344-9.273438-6.917969 1.230469-11.960937 7.246094-11.960937 14.273438 0 7.03125 5.042968 13.046875 11.960937 14.277344 6.921875 1.230468 13.726563-2.679688 16.152344-9.277344h81.226563c2.761718 0 5-2.238281 5-5s-2.238282-5-5-5zm-94.820313 9.5c-2.484375 0-4.5-2.011719-4.5-4.5 0-2.484375 2.015625-4.5 4.5-4.5 2.488281 0 4.5 2.015625 4.5 4.5-.003906 2.484375-2.015625 4.496094-4.5 4.5zm0 0"></path></svg>