<svg xmlns="http://www.w3.org/2000/svg" height="456pt" viewBox="-34 0 456 456.42105" width="456pt"><path d="m8.640625 410.28125 23.730469-22.492188 36.800781 38.832032c1.898437 2.003906 5.066406 2.089844 7.070313.1875 2.003906-1.898438 2.089843-5.0625.1875-7.070313l-36.796876-38.828125 7.539063-7.148437 46 48.488281 1.589844 1.679688-25.25 23.859374c-2.003907 1.902344-2.089844 5.066407-.191407 7.070313 1.902344 2.003906 5.066407 2.089844 7.070313.191406l28.800781-27.3125c2-1.898437 2.082032-5.054687.191406-7.058593l-1.589843-1.679688 15.148437-14.351562 76.789063 5.160156c.644531.042968 1.289062-.039063 1.902343-.238282l68-22.332031c.703126-.222656 1.34375-.605469 1.878907-1.117187l51.859375-49.152344c9.253906-8.769531 9.644531-23.378906.875-32.632812-8.769532-9.253907-23.382813-9.644532-32.632813-.875l-45.792969 43.398437-8 .3125c2.292969-3.589844 3.539063-7.746094 3.601563-12 0-.710937 0-1.433594-.070313-2.132813h6.710938c2.761719 0 5-2.238281 5-5 0-2.761718-2.238281-5-5-5h-9.839844c-.957031-1.601562-2.097656-3.085937-3.402344-4.417968-4.316406-4.421875-10.230468-6.917969-16.410156-6.929688l-113.898437-.351562c-1.289063-.015625-2.53125.476562-3.460938 1.371094l-10.9375 10.367187h-15c6.292969-5.839844 10.363281-13.6875 11.519531-22.199219h195.878907c2.761719 0 5-2.238281 5-5 0-2.761718-2.238281-5-5-5h-19.089844v-13.957031c0-2.761719-2.238281-5-5-5s-5 2.238281-5 5v13.9375h-171.421875c-2.761719 0-5 2.238281-5 5-.015625 14.9375-12.0625 27.074219-27 27.199219h-2.160156c-13.800782-.296875-24.851563-11.542969-24.910156-25.347656v-104.820313c0-2.761719-2.238282-5-5-5-2.757813 0-5 2.238281-5 5v104.808594c.082031 19.21875 15.4375 34.886719 34.652343 35.351562h32l-31.652343 30-42.15625 40c-2.007813 1.898438-2.089844 5.0625-.191407 7.070313 1.898438 2.003906 5.066407 2.089844 7.070313.1875zm93.871094-88.941406 111.878906.390625c7.125.027343 12.925781 5.746093 13.050781 12.871093s-5.46875 13.042969-12.589844 13.320313l-19.570312.757813-31.230469 1.199218c-2.761719.105469-4.914062 2.429688-4.808593 5.191406.105468 2.761719 2.429687 4.914063 5.1875 4.808594l31.242187-1.207031h.199219l48.25-1.871094c1.210937-.046875 2.359375-.53125 3.242187-1.359375l47.148438-44.722656c5.246093-4.964844 13.523437-4.746094 18.5.492188 4.96875 5.246093 4.746093 13.527343-.5 18.5l-51 48.378906-66 21.679687-78-5.25c-1.390625-.089843-2.757813.402344-3.769531 1.359375l-16.789063 15.859375-42.523437-44.859375zm0 0"></path><path d="m254.421875 129.480469c2.761719 0 5-2.238281 5-5v-119.480469c0-2.761719-2.238281-5-5-5h-240.820313c-2.761718 0-5 2.238281-5 5v165.878906c0 2.761719 2.238282 5 5 5 2.761719 0 5-2.238281 5-5v-160.878906h230.820313v114.480469c0 2.761719 2.238281 5 5 5zm0 0"></path><path d="m309.160156 123.75c-28.464844-.320312-54.90625 14.683594-69.234375 39.285156-14.324219 24.597656-14.324219 55 0 79.601563 14.328125 24.601562 40.769531 39.601562 69.234375 39.285156 2.761719 0 5-2.242187 5-5 0-2.761719-2.238281-5-5-5-36.085937-.054687-66.035156-27.902344-68.707031-63.890625-2.675781-35.988281 22.832031-67.957031 58.515625-73.339844 35.683594-5.382812 69.488281 17.640625 77.550781 52.8125 8.058594 35.175782-12.34375 70.621094-46.808593 81.316406-2.636719.828126-4.101563 3.636719-3.273438 6.273438s3.636719 4.105469 6.273438 3.277344c37.320312-11.628906 60.550781-48.773438 54.671874-87.417969-5.875-38.644531-39.101562-67.199219-78.191406-67.203125zm0 0"></path><path d="m288.179688 157.28125c1.675781-.714844 2.832031-2.28125 3.015624-4.09375.183594-1.808594-.628906-3.578125-2.125-4.617188-1.496093-1.035156-3.4375-1.179687-5.070312-.371093-27.984375 12.839843-41.800781 44.703125-32.042969 73.90625 9.753907 29.203125 39.949219 46.363281 70.035157 39.796875 30.082031-6.5625 50.386718-34.742188 47.089843-65.355469s-29.128906-53.824219-59.921875-53.835937c-2.761718 0-5 2.238281-5 5 0 2.761718 2.238282 5 5 5 25.644532.035156 47.144532 19.382812 49.867188 44.882812 2.726562 25.5-14.199219 48.953125-39.253906 54.40625-25.058594 5.453125-50.199219-8.847656-58.316407-33.171875-8.117187-24.324219 3.394531-50.859375 26.703125-61.546875zm0 0"></path><path d="m81 30.851562h-18.917969c-2.761719 0-5 2.238282-5 5v13.910157h-13.910156c-2.761719 0-5 2.238281-5 5v18.917969c0 2.761718 2.238281 5 5 5h13.910156v13.910156c0 2.761718 2.238281 5 5 5h18.917969c2.761719 0 5-2.238282 5-5v-13.910156h13.910156c2.761719 0 5-2.238282 5-5v-18.917969c0-2.761719-2.238281-5-5-5h-13.910156v-13.910157c0-2.761718-2.238281-5-5-5zm13.910156 28.910157v8.917969h-13.910156c-2.761719 0-5 2.238281-5 5v13.910156h-8.917969v-13.910156c0-2.761719-2.238281-5-5-5h-13.910156v-8.917969h13.910156c2.761719 0 5-2.242188 5-5v-13.910157h8.917969v13.910157c0 2.757812 2.238281 5 5 5zm0 0"></path><path d="m335.75 218.890625c0-11-9-15.289063-21.589844-20.242187v-19.828126c3.75 1.078126 6.3125 3.699219 7.75 7.929688l.78125 2.359375c1.050782 3.1875 4.445313 4.960937 7.660156 4 3.269532-.976563 5.132813-4.414063 4.171876-7.6875l-.160157-.570313c-2-6.480468-7.152343-14.089843-20.203125-15.492187v-3.910156c.046875-2.628907-1.898437-4.871094-4.507812-5.199219-1.410156-.140625-2.8125.324219-3.859375 1.277344-1.042969.953125-1.636719 2.308594-1.632813 3.722656v4.351562c-11 1.769532-18.777344 8.726563-18.777344 17.558594 0 10.410156 8.199219 13.898438 18.777344 18v23.839844c-6.257812-1.460938-7.617187-5.648438-8.578125-10.828125-.230469-3.367187-3.019531-5.984375-6.390625-6-1.738281-.011719-3.40625.683594-4.625 1.921875-1.214844 1.238281-1.882812 2.917969-1.84375 4.65625v.851562c1.628906 11.386719 8.660156 17.597657 21.417969 18.886719v2.851563c-.039063 2.628906 1.902344 4.863281 4.511719 5.191406 1.40625.136719 2.808594-.328125 3.855468-1.28125 1.046876-.953125 1.640626-2.304688 1.632813-3.71875v-3.132812c13.289063-1.386719 21.609375-8.738282 21.609375-19.507813zm-37.476562-31.75c-.160157-3.734375 2.285156-7.078125 5.886718-8.0625v15.261719c-5.570312-2.761719-5.886718-4.289063-5.886718-7.199219zm15.886718 41.949219v-19.929688c5.621094 2.640625 8.703125 5.390625 8.703125 10.308594 0 6.441406-4.613281 8.792969-8.703125 9.621094zm0 0"></path><path d="m63.871094 127.800781h-9.480469c-2.761719 0-5 2.238281-5 5s2.238281 5 5 5h9.480469c2.761718 0 5-2.238281 5-5s-2.238282-5-5-5zm0 0"></path><path d="m205.210938 127.800781h-121c-2.761719 0-5 2.238281-5 5s2.238281 5 5 5h121c2.761718 0 5-2.238281 5-5s-2.238282-5-5-5zm0 0"></path><path d="m147.210938 56.921875c2.761718 0 5-2.242187 5-5 0-2.761719-2.238282-5-5-5h-9.480469c-2.761719 0-5 2.238281-5 5 0 2.757813 2.238281 5 5 5zm0 0"></path><path d="m234.511719 51.921875c0-2.761719-2.238281-5-5-5h-62c-2.761719 0-5 2.238281-5 5 0 2.757813 2.238281 5 5 5h62c2.761719 0 5-2.242187 5-5zm0 0"></path><path d="m54.390625 194.058594h9.480469c2.761718 0 5-2.238282 5-5 0-2.761719-2.238282-5-5-5h-9.480469c-2.761719 0-5 2.238281-5 5 0 2.761718 2.238281 5 5 5zm0 0"></path><path d="m210.210938 189.058594c0-2.761719-2.238282-5-5-5h-121c-2.761719 0-5 2.238281-5 5 0 2.761718 2.238281 5 5 5h121c2.761718 0 5-2.238282 5-5zm0 0"></path><path d="m205.210938 156.46875h-15.820313c-2.761719 0-5 2.238281-5 5s2.238281 5 5 5h15.820313c2.761718 0 5-2.238281 5-5s-2.238282-5-5-5zm0 0"></path><path d="m49.390625 161.46875c0 2.761719 2.238281 5 5 5h117.121094c2.761719 0 5-2.238281 5-5s-2.238281-5-5-5h-117.121094c-2.761719 0-5 2.238281-5 5zm0 0"></path><path d="m54.730469 222.339844h117.78125c2.761719 0 5-2.238282 5-5 0-2.761719-2.238281-5-5-5h-117.78125c-2.761719 0-5 2.238281-5 5 0 2.761718 2.238281 5 5 5zm0 0"></path></svg>